<mxfile host="app.diagrams.net" modified="2023-03-17T14:35:51.534Z" agent="5.0 (Macintosh; Intel Mac OS X 10_15_7) AppleWebKit/605.1.15 (KHTML, like Gecko) Version/16.3 Safari/605.1.15" etag="ghQGxbu7biET0Iv3hFEr" version="21.0.6" type="github">
  <diagram name="第 1 页" id="peD9xbpau831X61S6zhF">
    <mxGraphModel dx="1242" dy="756" grid="1" gridSize="10" guides="1" tooltips="1" connect="1" arrows="1" fold="1" page="1" pageScale="1" pageWidth="827" pageHeight="1169" math="0" shadow="0">
      <root>
        <mxCell id="0" />
        <mxCell id="1" parent="0" />
        <mxCell id="t7m15qNBvcBTXfSRlx0m-10" style="edgeStyle=orthogonalEdgeStyle;rounded=0;orthogonalLoop=1;jettySize=auto;html=1;exitX=1;exitY=0.5;exitDx=0;exitDy=0;" edge="1" parent="1" source="t7m15qNBvcBTXfSRlx0m-1" target="t7m15qNBvcBTXfSRlx0m-3">
          <mxGeometry relative="1" as="geometry" />
        </mxCell>
        <mxCell id="t7m15qNBvcBTXfSRlx0m-1" value="T1" style="ellipse;whiteSpace=wrap;html=1;fillColor=#f8cecc;strokeColor=#b85450;" vertex="1" parent="1">
          <mxGeometry x="40" y="200" width="120" height="50" as="geometry" />
        </mxCell>
        <mxCell id="t7m15qNBvcBTXfSRlx0m-11" style="edgeStyle=orthogonalEdgeStyle;rounded=0;orthogonalLoop=1;jettySize=auto;html=1;entryX=0;entryY=0.5;entryDx=0;entryDy=0;curved=1;" edge="1" parent="1" source="t7m15qNBvcBTXfSRlx0m-2" target="t7m15qNBvcBTXfSRlx0m-3">
          <mxGeometry relative="1" as="geometry" />
        </mxCell>
        <mxCell id="t7m15qNBvcBTXfSRlx0m-2" value="T2" style="ellipse;whiteSpace=wrap;html=1;fillColor=#f8cecc;strokeColor=#b85450;" vertex="1" parent="1">
          <mxGeometry x="40" y="270" width="120" height="50" as="geometry" />
        </mxCell>
        <mxCell id="t7m15qNBvcBTXfSRlx0m-29" style="edgeStyle=orthogonalEdgeStyle;rounded=0;orthogonalLoop=1;jettySize=auto;html=1;exitX=1;exitY=0.5;exitDx=0;exitDy=0;entryX=0.5;entryY=0;entryDx=0;entryDy=0;curved=1;" edge="1" parent="1" source="t7m15qNBvcBTXfSRlx0m-3" target="t7m15qNBvcBTXfSRlx0m-25">
          <mxGeometry relative="1" as="geometry" />
        </mxCell>
        <mxCell id="t7m15qNBvcBTXfSRlx0m-3" value="base&lt;br&gt;2" style="rounded=1;whiteSpace=wrap;html=1;fillColor=#fff2cc;strokeColor=#d6b656;" vertex="1" parent="1">
          <mxGeometry x="320" y="195" width="120" height="60" as="geometry" />
        </mxCell>
        <mxCell id="t7m15qNBvcBTXfSRlx0m-31" style="edgeStyle=orthogonalEdgeStyle;rounded=0;orthogonalLoop=1;jettySize=auto;html=1;exitX=1;exitY=0.5;exitDx=0;exitDy=0;curved=1;" edge="1" parent="1" source="t7m15qNBvcBTXfSRlx0m-4" target="t7m15qNBvcBTXfSRlx0m-25">
          <mxGeometry relative="1" as="geometry" />
        </mxCell>
        <mxCell id="t7m15qNBvcBTXfSRlx0m-4" value="" style="rounded=1;whiteSpace=wrap;html=1;" vertex="1" parent="1">
          <mxGeometry x="320" y="300" width="120" height="270" as="geometry" />
        </mxCell>
        <mxCell id="t7m15qNBvcBTXfSRlx0m-5" value="cell&lt;br&gt;2" style="rounded=1;whiteSpace=wrap;html=1;" vertex="1" parent="1">
          <mxGeometry x="335" y="320" width="90" height="50" as="geometry" />
        </mxCell>
        <mxCell id="t7m15qNBvcBTXfSRlx0m-6" value="cell&lt;br&gt;2" style="rounded=1;whiteSpace=wrap;html=1;" vertex="1" parent="1">
          <mxGeometry x="335" y="380" width="90" height="50" as="geometry" />
        </mxCell>
        <mxCell id="t7m15qNBvcBTXfSRlx0m-7" value="cell&lt;br&gt;1" style="rounded=1;whiteSpace=wrap;html=1;" vertex="1" parent="1">
          <mxGeometry x="335" y="440" width="90" height="50" as="geometry" />
        </mxCell>
        <mxCell id="t7m15qNBvcBTXfSRlx0m-8" value="cell&lt;br&gt;1" style="rounded=1;whiteSpace=wrap;html=1;" vertex="1" parent="1">
          <mxGeometry x="335" y="500" width="90" height="50" as="geometry" />
        </mxCell>
        <mxCell id="t7m15qNBvcBTXfSRlx0m-12" style="edgeStyle=orthogonalEdgeStyle;rounded=0;orthogonalLoop=1;jettySize=auto;html=1;exitX=1;exitY=0.5;exitDx=0;exitDy=0;entryX=0;entryY=0.5;entryDx=0;entryDy=0;curved=1;" edge="1" parent="1" source="t7m15qNBvcBTXfSRlx0m-9" target="t7m15qNBvcBTXfSRlx0m-5">
          <mxGeometry relative="1" as="geometry" />
        </mxCell>
        <mxCell id="t7m15qNBvcBTXfSRlx0m-9" value="T3" style="ellipse;whiteSpace=wrap;html=1;fillColor=#d5e8d4;strokeColor=#82b366;" vertex="1" parent="1">
          <mxGeometry x="40" y="340" width="120" height="50" as="geometry" />
        </mxCell>
        <mxCell id="t7m15qNBvcBTXfSRlx0m-14" style="edgeStyle=orthogonalEdgeStyle;rounded=0;orthogonalLoop=1;jettySize=auto;html=1;exitX=1;exitY=0.5;exitDx=0;exitDy=0;entryX=0;entryY=0.5;entryDx=0;entryDy=0;curved=1;" edge="1" parent="1" source="t7m15qNBvcBTXfSRlx0m-13" target="t7m15qNBvcBTXfSRlx0m-6">
          <mxGeometry relative="1" as="geometry" />
        </mxCell>
        <mxCell id="t7m15qNBvcBTXfSRlx0m-13" value="T4" style="ellipse;whiteSpace=wrap;html=1;fillColor=#d5e8d4;strokeColor=#82b366;" vertex="1" parent="1">
          <mxGeometry x="40" y="410" width="120" height="50" as="geometry" />
        </mxCell>
        <mxCell id="t7m15qNBvcBTXfSRlx0m-16" style="edgeStyle=orthogonalEdgeStyle;rounded=0;orthogonalLoop=1;jettySize=auto;html=1;exitX=1;exitY=0.5;exitDx=0;exitDy=0;entryX=0;entryY=0.5;entryDx=0;entryDy=0;curved=1;" edge="1" parent="1" source="t7m15qNBvcBTXfSRlx0m-15" target="t7m15qNBvcBTXfSRlx0m-7">
          <mxGeometry relative="1" as="geometry" />
        </mxCell>
        <mxCell id="t7m15qNBvcBTXfSRlx0m-15" value="T4" style="ellipse;whiteSpace=wrap;html=1;fillColor=#d5e8d4;strokeColor=#82b366;" vertex="1" parent="1">
          <mxGeometry x="40" y="480" width="120" height="50" as="geometry" />
        </mxCell>
        <mxCell id="t7m15qNBvcBTXfSRlx0m-21" style="edgeStyle=orthogonalEdgeStyle;rounded=0;orthogonalLoop=1;jettySize=auto;html=1;exitX=1;exitY=0.5;exitDx=0;exitDy=0;entryX=0;entryY=0.5;entryDx=0;entryDy=0;curved=1;" edge="1" parent="1" source="t7m15qNBvcBTXfSRlx0m-17" target="t7m15qNBvcBTXfSRlx0m-8">
          <mxGeometry relative="1" as="geometry" />
        </mxCell>
        <mxCell id="t7m15qNBvcBTXfSRlx0m-17" value="T5" style="ellipse;whiteSpace=wrap;html=1;fillColor=#d5e8d4;strokeColor=#82b366;" vertex="1" parent="1">
          <mxGeometry x="40" y="550" width="120" height="50" as="geometry" />
        </mxCell>
        <mxCell id="t7m15qNBvcBTXfSRlx0m-20" style="edgeStyle=orthogonalEdgeStyle;rounded=0;orthogonalLoop=1;jettySize=auto;html=1;exitX=1;exitY=0.5;exitDx=0;exitDy=0;entryX=0;entryY=0.5;entryDx=0;entryDy=0;curved=1;" edge="1" parent="1" source="t7m15qNBvcBTXfSRlx0m-19" target="t7m15qNBvcBTXfSRlx0m-5">
          <mxGeometry relative="1" as="geometry">
            <Array as="points">
              <mxPoint x="230" y="645" />
              <mxPoint x="230" y="345" />
            </Array>
          </mxGeometry>
        </mxCell>
        <mxCell id="t7m15qNBvcBTXfSRlx0m-19" value="T6" style="ellipse;whiteSpace=wrap;html=1;fillColor=#d5e8d4;strokeColor=#82b366;" vertex="1" parent="1">
          <mxGeometry x="40" y="620" width="120" height="50" as="geometry" />
        </mxCell>
        <mxCell id="t7m15qNBvcBTXfSRlx0m-23" style="edgeStyle=orthogonalEdgeStyle;rounded=0;orthogonalLoop=1;jettySize=auto;html=1;exitX=1;exitY=0.5;exitDx=0;exitDy=0;curved=1;entryX=0;entryY=0.5;entryDx=0;entryDy=0;" edge="1" parent="1" source="t7m15qNBvcBTXfSRlx0m-22" target="t7m15qNBvcBTXfSRlx0m-6">
          <mxGeometry relative="1" as="geometry">
            <mxPoint x="280" y="610" as="targetPoint" />
          </mxGeometry>
        </mxCell>
        <mxCell id="t7m15qNBvcBTXfSRlx0m-22" value="T7" style="ellipse;whiteSpace=wrap;html=1;fillColor=#d5e8d4;strokeColor=#82b366;" vertex="1" parent="1">
          <mxGeometry x="40" y="690" width="120" height="50" as="geometry" />
        </mxCell>
        <mxCell id="t7m15qNBvcBTXfSRlx0m-25" value="sum&lt;br style=&quot;border-color: var(--border-color);&quot;&gt;2 + 2 + 2 + 1 + 1 = 8" style="rounded=0;whiteSpace=wrap;html=1;" vertex="1" parent="1">
          <mxGeometry x="580" y="320" width="160" height="60" as="geometry" />
        </mxCell>
      </root>
    </mxGraphModel>
  </diagram>
</mxfile>
